<svg xmlns="http://www.w3.org/2000/svg" viewBox="0 0 32 32">
  <defs>
    <linearGradient id="flameGrad" x1="0%" y1="100%" x2="0%" y2="0%">
      <stop offset="0%" style="stop-color:#E63E2D"/>
      <stop offset="100%" style="stop-color:#F4776A"/>
    </linearGradient>
  </defs>
  <!-- Background circle -->
  <circle cx="16" cy="16" r="15" fill="#E63E2D"/>
  <!-- Flame icon -->
  <path d="M16 4c0 0-6 6-6 12 0 4 2.5 7 6 7s6-3 6-7c0-6-6-12-6-12zm0 16c-1.5 0-3-1.5-3-3.5 0-2.5 3-6 3-6s3 3.5 3 6c0 2-1.5 3.5-3 3.5z" fill="white"/>
  <!-- Small gear/worker badge -->
  <circle cx="24" cy="24" r="7" fill="#1a1a1a"/>
  <path d="M24 20v1.5M24 26.5V28M20 24h1.5M26.5 24H28M21.2 21.2l1.1 1.1M25.7 25.7l1.1 1.1M21.2 26.8l1.1-1.1M25.7 22.3l1.1-1.1" stroke="white" stroke-width="1.2" stroke-linecap="round"/>
  <circle cx="24" cy="24" r="2" fill="white"/>
</svg>
